<svg xmlns="http://www.w3.org/2000/svg" viewBox="0 0 1337.019 307.798"><defs><style>.cls-1{fill:#4fb81c;}.cls-2,.cls-3,.cls-4{fill:#efab1f;}.cls-3{opacity:0.7;}.cls-4{opacity:0.4;}.cls-5{fill:#1d1d1b;}.cls-6{fill:none;stroke:#231f20;stroke-miterlimit:10;stroke-width:3px;}.cls-7{fill:#231f20;}.cls-8{fill:#fff;}</style></defs><g id="Ebene_2" data-name="Ebene 2"><g id="Layer_1" data-name="Layer 1"><path d="M445.565,297.1l1.791-.641a6.183,6.183,0,0,0,2.2,3.276,6.117,6.117,0,0,0,3.681,1.092,6.3,6.3,0,0,0,3.744-1,3.206,3.206,0,0,0,1.39-2.758,4.215,4.215,0,0,0-.226-1.434,2.813,2.813,0,0,0-.842-1.16,7.223,7.223,0,0,0-1.67-1.023,24.048,24.048,0,0,0-2.71-1.025q-1.673-.531-2.93-1.044a8.054,8.054,0,0,1-2.1-1.2,4.515,4.515,0,0,1-1.252-1.584,5.156,5.156,0,0,1-.415-2.177,4.677,4.677,0,0,1,.477-2.093,5.26,5.26,0,0,1,1.322-1.689,6.356,6.356,0,0,1,2.024-1.139,7.681,7.681,0,0,1,2.6-.419,9.083,9.083,0,0,1,2.615.35,6.712,6.712,0,0,1,2.032.983,6.435,6.435,0,0,1,1.492,1.517,7.657,7.657,0,0,1,.979,1.93l-1.682.778a5.706,5.706,0,0,0-2.143-2.873,6.749,6.749,0,0,0-5.189-.6,4.54,4.54,0,0,0-1.4.709,3.011,3.011,0,0,0-1.191,2.41,3.547,3.547,0,0,0,.28,1.474,2.956,2.956,0,0,0,.959,1.119,7.855,7.855,0,0,0,1.766.942q1.089.438,2.745.956a22.694,22.694,0,0,1,2.833,1.064,8.1,8.1,0,0,1,2,1.277,4.742,4.742,0,0,1,1.2,1.638,5.4,5.4,0,0,1,.4,2.177,4.979,4.979,0,0,1-.547,2.336,5.253,5.253,0,0,1-1.5,1.775,7.2,7.2,0,0,1-2.285,1.133,9.688,9.688,0,0,1-2.867.41,7.978,7.978,0,0,1-4.9-1.467A7.349,7.349,0,0,1,445.565,297.1Z" transform="translate(-1.627)"/><path d="M464.351,302.192V281.465h1.927v8.3a10.925,10.925,0,0,1,2.468-1.839,6.458,6.458,0,0,1,3.165-.772A4.353,4.353,0,0,1,475.2,288.3a4.475,4.475,0,0,1,1.1,3.227v10.664h-1.928V291.883a3.287,3.287,0,0,0-.711-2.317,2.921,2.921,0,0,0-2.228-.759,5.413,5.413,0,0,0-2.66.684,12.21,12.21,0,0,0-2.5,1.887v10.814Z" transform="translate(-1.627)"/><path d="M479.718,298.737a4.2,4.2,0,0,1,.506-2.027,5,5,0,0,1,1.681-1.72,12.522,12.522,0,0,1,3.083-1.4,30.63,30.63,0,0,1,4.724-1.037V291.8a3.08,3.08,0,0,0-.765-2.291,3.043,3.043,0,0,0-2.224-.751,6.571,6.571,0,0,0-3.046.661,12.466,12.466,0,0,0-2.458,1.679l-1.047-1.212a11.826,11.826,0,0,1,2.94-1.974,8.807,8.807,0,0,1,3.788-.754,4.658,4.658,0,0,1,3.617,1.243,4.965,4.965,0,0,1,1.123,3.455v6.695a21.155,21.155,0,0,0,.1,2.213,5.755,5.755,0,0,0,.315,1.433h-1.994q-.138-.482-.241-.97a5.589,5.589,0,0,1-.1-1.147A9.226,9.226,0,0,1,487,301.847a8.034,8.034,0,0,1-3.106.591,4.464,4.464,0,0,1-3.083-.98A3.462,3.462,0,0,1,479.718,298.737Zm1.928-.245a2.152,2.152,0,0,0,.709,1.76,3,3,0,0,0,1.965.586,6.892,6.892,0,0,0,2.908-.614,9.11,9.11,0,0,0,2.484-1.7v-4.585a30,30,0,0,0-3.924.88,10.939,10.939,0,0,0-2.471,1.058,3.691,3.691,0,0,0-1.3,1.228A2.76,2.76,0,0,0,481.646,298.492Z" transform="translate(-1.627)"/><path d="M495.933,302.192V287.44h1.927v2.937h.055a7.5,7.5,0,0,1,2.276-2.308,6.425,6.425,0,0,1,3.576-.916h.341l-.191,1.818h-.287a1.338,1.338,0,0,1-.192-.013.848.848,0,0,0-.109-.014,5.506,5.506,0,0,0-3.213.955,7,7,0,0,0-2.256,2.715v9.578Z" transform="translate(-1.627)"/><path d="M505.339,294.8a9.156,9.156,0,0,1,.574-3.4,6.991,6.991,0,0,1,1.5-2.379,6.2,6.2,0,0,1,2.071-1.4,6.093,6.093,0,0,1,2.318-.465,5.807,5.807,0,0,1,2.4.492,5.219,5.219,0,0,1,1.9,1.456,7.134,7.134,0,0,1,1.265,2.406,10.809,10.809,0,0,1,.465,3.316v.369H507.267a7.235,7.235,0,0,0,.376,2.432,5.572,5.572,0,0,0,1,1.786,4.25,4.25,0,0,0,3.268,1.5,4.8,4.8,0,0,0,2.7-.694,6.726,6.726,0,0,0,1.894-2.012l1.2.961a7.756,7.756,0,0,1-2.4,2.447,6.444,6.444,0,0,1-3.52.9,6.316,6.316,0,0,1-2.461-.492,5.659,5.659,0,0,1-2.055-1.476,7.492,7.492,0,0,1-1.408-2.407A9.568,9.568,0,0,1,505.339,294.8Zm1.955-1.148h8.654a9.369,9.369,0,0,0-.376-1.932,4.94,4.94,0,0,0-.793-1.567,3.482,3.482,0,0,0-1.271-1.031,3.98,3.98,0,0,0-1.743-.364,4.118,4.118,0,0,0-1.545.3,4.011,4.011,0,0,0-1.347.9,5.1,5.1,0,0,0-1.025,1.519A7.052,7.052,0,0,0,507.294,293.647Z" transform="translate(-1.627)"/><path d="M526.981,294.8a10.691,10.691,0,0,1,.478-3.361,6.766,6.766,0,0,1,1.318-2.386,5.4,5.4,0,0,1,1.987-1.425,6.339,6.339,0,0,1,2.459-.477,5.667,5.667,0,0,1,2.67.648,7.352,7.352,0,0,1,2.094,1.622v-7.958h1.928v17.09a20.755,20.755,0,0,0,.1,2.208,4.887,4.887,0,0,0,.342,1.429h-2.026a6.585,6.585,0,0,1-.238-.991,6.961,6.961,0,0,1-.1-1.184,9.024,9.024,0,0,1-2.081,1.706,5.433,5.433,0,0,1-2.848.715,6.207,6.207,0,0,1-2.376-.459,5.02,5.02,0,0,1-1.932-1.412,7.1,7.1,0,0,1-1.291-2.386A10.721,10.721,0,0,1,526.981,294.8Zm1.928.028a8.92,8.92,0,0,0,.349,2.641,5.346,5.346,0,0,0,.966,1.862,3.866,3.866,0,0,0,1.43,1.095,4.266,4.266,0,0,0,1.733.356,4.651,4.651,0,0,0,2.458-.651,10.52,10.52,0,0,0,2.142-1.772v-7.172a9.5,9.5,0,0,0-2.2-1.807,4.759,4.759,0,0,0-2.4-.629,4.454,4.454,0,0,0-1.8.362,3.66,3.66,0,0,0-1.417,1.109,5.52,5.52,0,0,0-.925,1.9A9.754,9.754,0,0,0,528.909,294.83Z" transform="translate(-1.627)"/><path d="M543.5,298.737A4.2,4.2,0,0,1,544,296.71a4.99,4.99,0,0,1,1.682-1.72,12.5,12.5,0,0,1,3.083-1.4,30.588,30.588,0,0,1,4.723-1.037V291.8a3.084,3.084,0,0,0-.764-2.291,3.045,3.045,0,0,0-2.225-.751,6.571,6.571,0,0,0-3.046.661A12.5,12.5,0,0,0,545,291.093l-1.047-1.212a11.831,11.831,0,0,1,2.941-1.974,8.8,8.8,0,0,1,3.788-.754A4.656,4.656,0,0,1,554.3,288.4a4.965,4.965,0,0,1,1.123,3.455v6.695a20.845,20.845,0,0,0,.1,2.213,5.759,5.759,0,0,0,.314,1.433h-1.994q-.138-.482-.24-.97a5.514,5.514,0,0,1-.1-1.147,9.213,9.213,0,0,1-2.709,1.772,8.033,8.033,0,0,1-3.105.591,4.463,4.463,0,0,1-3.083-.98A3.459,3.459,0,0,1,543.5,298.737Zm1.928-.245a2.149,2.149,0,0,0,.71,1.76,3,3,0,0,0,1.965.586,6.891,6.891,0,0,0,2.907-.614,9.1,9.1,0,0,0,2.484-1.7v-4.585a30.043,30.043,0,0,0-3.924.88,10.909,10.909,0,0,0-2.47,1.058,3.687,3.687,0,0,0-1.3,1.228A2.76,2.76,0,0,0,545.425,298.492Z" transform="translate(-1.627)"/><path d="M558.14,289.094V287.44h2.584v-5.291h1.927v5.291h3.828v1.654h-3.828v9.267a2.909,2.909,0,0,0,.479,1.8,2.224,2.224,0,0,0,1.846.623h.827a2.466,2.466,0,0,0,.718-.1v1.531c-.228.036-.52.074-.875.11a10.343,10.343,0,0,1-1.04.054,4.251,4.251,0,0,1-3-.854,3.748,3.748,0,0,1-.881-2.782v-9.653Z" transform="translate(-1.627)"/><path d="M568.927,298.737a4.2,4.2,0,0,1,.506-2.027,5,5,0,0,1,1.681-1.72,12.522,12.522,0,0,1,3.083-1.4,30.63,30.63,0,0,1,4.724-1.037V291.8a3.08,3.08,0,0,0-.765-2.291,3.044,3.044,0,0,0-2.224-.751,6.571,6.571,0,0,0-3.046.661,12.466,12.466,0,0,0-2.458,1.679l-1.047-1.212a11.826,11.826,0,0,1,2.94-1.974,8.807,8.807,0,0,1,3.788-.754,4.658,4.658,0,0,1,3.617,1.243,4.965,4.965,0,0,1,1.123,3.455v6.695a21.155,21.155,0,0,0,.095,2.213,5.755,5.755,0,0,0,.315,1.433h-1.994q-.138-.482-.241-.97a5.589,5.589,0,0,1-.1-1.147,9.226,9.226,0,0,1-2.709,1.772,8.034,8.034,0,0,1-3.106.591,4.464,4.464,0,0,1-3.083-.98A3.462,3.462,0,0,1,568.927,298.737Zm1.927-.245a2.152,2.152,0,0,0,.71,1.76,3,3,0,0,0,1.965.586,6.892,6.892,0,0,0,2.908-.614,9.11,9.11,0,0,0,2.484-1.7v-4.585a30,30,0,0,0-3.924.88,10.939,10.939,0,0,0-2.471,1.058,3.7,3.7,0,0,0-1.3,1.228A2.76,2.76,0,0,0,570.854,298.492Z" transform="translate(-1.627)"/><path d="M1195.487,302.192l7.328-20.809h2.161l7.341,20.809h-2.078l-2.215-6.385h-8.394l-2.215,6.385Zm4.758-8.148h7.164l-3.555-10.309h-.054Z" transform="translate(-1.627)"/><path d="M1214.163,294.823a9.512,9.512,0,0,1,.557-3.425,7.028,7.028,0,0,1,1.476-2.393,5.752,5.752,0,0,1,2.116-1.4,6.827,6.827,0,0,1,2.427-.451,6.246,6.246,0,0,1,2.085.321,5.035,5.035,0,0,1,1.579.882,6.166,6.166,0,0,1,1.162,1.292,8.392,8.392,0,0,1,.821,1.538l-1.641.725a6.013,6.013,0,0,0-1.565-2.3,3.712,3.712,0,0,0-2.5-.8,4.707,4.707,0,0,0-1.648.308,3.788,3.788,0,0,0-1.483,1.025,5.37,5.37,0,0,0-1.06,1.86,8.47,8.47,0,0,0-.4,2.8,8.721,8.721,0,0,0,.348,2.584,5.814,5.814,0,0,0,.951,1.887,4.139,4.139,0,0,0,1.428,1.176,4,4,0,0,0,1.8.41,3.925,3.925,0,0,0,2.5-.745,6.648,6.648,0,0,0,1.743-2.4l1.559.67a11.231,11.231,0,0,1-.984,1.7,5.754,5.754,0,0,1-1.265,1.305,5.618,5.618,0,0,1-1.613.827,6.423,6.423,0,0,1-2.017.294,6.021,6.021,0,0,1-2.42-.5,5.835,5.835,0,0,1-2.041-1.491,7.285,7.285,0,0,1-1.394-2.406A9.6,9.6,0,0,1,1214.163,294.823Z" transform="translate(-1.627)"/><path d="M1228.3,289.094V287.44h2.584v-5.291h1.928v5.291h3.828v1.654h-3.828v9.267a2.909,2.909,0,0,0,.478,1.8,2.225,2.225,0,0,0,1.846.623h.827a2.466,2.466,0,0,0,.718-.1v1.531c-.228.036-.52.074-.875.11a10.323,10.323,0,0,1-1.039.054,4.251,4.251,0,0,1-3-.854,3.743,3.743,0,0,1-.882-2.782v-9.653Z" transform="translate(-1.627)"/><path d="M1245.581,294.823a9.365,9.365,0,0,1,.532-3.275,7.175,7.175,0,0,1,1.442-2.406,6.011,6.011,0,0,1,2.131-1.483,6.7,6.7,0,0,1,2.587-.506,6.616,6.616,0,0,1,2.56.506,6.053,6.053,0,0,1,2.128,1.483,7.161,7.161,0,0,1,1.443,2.406,10.328,10.328,0,0,1,0,6.556,7.241,7.241,0,0,1-1.443,2.406,6,6,0,0,1-2.128,1.491,6.741,6.741,0,0,1-5.12,0,6.1,6.1,0,0,1-2.145-1.491,7.134,7.134,0,0,1-1.455-2.406A9.349,9.349,0,0,1,1245.581,294.823Zm1.928-.028a8.885,8.885,0,0,0,.294,2.325,5.774,5.774,0,0,0,.9,1.921,4.542,4.542,0,0,0,1.5,1.319,4.623,4.623,0,0,0,4.067.041,4.453,4.453,0,0,0,1.485-1.251,5.688,5.688,0,0,0,.938-1.9,8.756,8.756,0,0,0,.322-2.455,8.381,8.381,0,0,0-.308-2.29,6.025,6.025,0,0,0-.9-1.9,4.514,4.514,0,0,0-1.472-1.306,4.165,4.165,0,0,0-2.061-.492,4.349,4.349,0,0,0-2,.451,4.422,4.422,0,0,0-1.5,1.245,5.6,5.6,0,0,0-.939,1.9A8.56,8.56,0,0,0,1247.509,294.8Z" transform="translate(-1.627)"/><path d="M1262.589,302.192V287.44h1.928v2.324a10.919,10.919,0,0,1,2.467-1.839,6.46,6.46,0,0,1,3.165-.772,4.357,4.357,0,0,1,3.289,1.148,4.478,4.478,0,0,1,1.1,3.227v10.664h-1.928V291.883a3.287,3.287,0,0,0-.711-2.317,2.92,2.92,0,0,0-2.228-.759,5.409,5.409,0,0,0-2.659.684,12.183,12.183,0,0,0-2.495,1.887v10.814Z" transform="translate(-1.627)"/><path d="M1284.368,294.8a10.662,10.662,0,0,1,.478-3.361,6.766,6.766,0,0,1,1.318-2.386,5.406,5.406,0,0,1,1.986-1.425,6.343,6.343,0,0,1,2.459-.477,5.665,5.665,0,0,1,2.67.648,7.343,7.343,0,0,1,2.1,1.622v-7.958h1.928v17.09a21.063,21.063,0,0,0,.1,2.208,4.952,4.952,0,0,0,.342,1.429h-2.025a6.585,6.585,0,0,1-.238-.991,6.961,6.961,0,0,1-.1-1.184,9.045,9.045,0,0,1-2.081,1.706,5.434,5.434,0,0,1-2.849.715,6.207,6.207,0,0,1-2.376-.459,5.017,5.017,0,0,1-1.931-1.412,7.1,7.1,0,0,1-1.291-2.386A10.692,10.692,0,0,1,1284.368,294.8Zm1.928.028a8.92,8.92,0,0,0,.349,2.641,5.362,5.362,0,0,0,.965,1.862,3.869,3.869,0,0,0,1.431,1.095,4.265,4.265,0,0,0,1.732.356,4.649,4.649,0,0,0,2.458-.651,10.524,10.524,0,0,0,2.143-1.772v-7.172a9.5,9.5,0,0,0-2.2-1.807,4.763,4.763,0,0,0-2.4-.629,4.449,4.449,0,0,0-1.8.362,3.653,3.653,0,0,0-1.417,1.109,5.5,5.5,0,0,0-.925,1.9A9.716,9.716,0,0,0,1286.3,294.83Z" transform="translate(-1.627)"/><path d="M1300.884,298.737a4.2,4.2,0,0,1,.506-2.027,5,5,0,0,1,1.681-1.72,12.522,12.522,0,0,1,3.083-1.4,30.63,30.63,0,0,1,4.724-1.037V291.8a3.08,3.08,0,0,0-.765-2.291,3.043,3.043,0,0,0-2.224-.751,6.571,6.571,0,0,0-3.046.661,12.466,12.466,0,0,0-2.458,1.679l-1.047-1.212a11.826,11.826,0,0,1,2.94-1.974,8.807,8.807,0,0,1,3.788-.754,4.657,4.657,0,0,1,3.617,1.243,4.965,4.965,0,0,1,1.123,3.455v6.695a21.155,21.155,0,0,0,.1,2.213,5.755,5.755,0,0,0,.315,1.433h-1.994q-.138-.482-.241-.97a5.589,5.589,0,0,1-.1-1.147,9.226,9.226,0,0,1-2.709,1.772,8.034,8.034,0,0,1-3.106.591,4.464,4.464,0,0,1-3.083-.98A3.462,3.462,0,0,1,1300.884,298.737Zm1.928-.245a2.152,2.152,0,0,0,.709,1.76,3,3,0,0,0,1.965.586,6.892,6.892,0,0,0,2.908-.614,9.11,9.11,0,0,0,2.484-1.7v-4.585a30,30,0,0,0-3.924.88,10.939,10.939,0,0,0-2.471,1.058,3.691,3.691,0,0,0-1.3,1.228A2.76,2.76,0,0,0,1302.812,298.492Z" transform="translate(-1.627)"/><path d="M1315.526,289.094V287.44h2.584v-5.291h1.928v5.291h3.828v1.654h-3.828v9.267a2.9,2.9,0,0,0,.479,1.8,2.223,2.223,0,0,0,1.845.623h.827a2.462,2.462,0,0,0,.718-.1v1.531c-.227.036-.519.074-.875.11a10.308,10.308,0,0,1-1.039.054,4.251,4.251,0,0,1-3-.854,3.743,3.743,0,0,1-.882-2.782v-9.653Z" transform="translate(-1.627)"/><path d="M1326.313,298.737a4.2,4.2,0,0,1,.506-2.027,5,5,0,0,1,1.682-1.72,12.5,12.5,0,0,1,3.083-1.4,30.6,30.6,0,0,1,4.724-1.037V291.8a3.08,3.08,0,0,0-.765-2.291,3.045,3.045,0,0,0-2.225-.751,6.576,6.576,0,0,0-3.046.661,12.525,12.525,0,0,0-2.458,1.679l-1.046-1.212a11.826,11.826,0,0,1,2.94-1.974,8.8,8.8,0,0,1,3.788-.754,4.656,4.656,0,0,1,3.616,1.243,4.965,4.965,0,0,1,1.123,3.455v6.695a21.117,21.117,0,0,0,.1,2.213,5.755,5.755,0,0,0,.315,1.433h-1.995c-.091-.321-.172-.644-.24-.97a5.589,5.589,0,0,1-.1-1.147,9.226,9.226,0,0,1-2.709,1.772,8.041,8.041,0,0,1-3.106.591,4.464,4.464,0,0,1-3.083-.98A3.462,3.462,0,0,1,1326.313,298.737Zm1.928-.245a2.152,2.152,0,0,0,.71,1.76,3,3,0,0,0,1.965.586,6.884,6.884,0,0,0,2.907-.614,9.1,9.1,0,0,0,2.485-1.7v-4.585a30,30,0,0,0-3.924.88,10.919,10.919,0,0,0-2.471,1.058,3.7,3.7,0,0,0-1.3,1.228A2.76,2.76,0,0,0,1328.241,298.492Z" transform="translate(-1.627)"/><path d="M1.627,297.1l1.791-.641a6.182,6.182,0,0,0,2.2,3.276A6.12,6.12,0,0,0,9.3,300.826a6.306,6.306,0,0,0,3.744-1,3.206,3.206,0,0,0,1.39-2.758,4.24,4.24,0,0,0-.226-1.434,2.816,2.816,0,0,0-.843-1.16,7.2,7.2,0,0,0-1.67-1.023,23.973,23.973,0,0,0-2.71-1.025q-1.671-.531-2.929-1.044a8.038,8.038,0,0,1-2.1-1.2A4.493,4.493,0,0,1,2.712,288.6a5.156,5.156,0,0,1-.415-2.177,4.676,4.676,0,0,1,.476-2.093A5.263,5.263,0,0,1,4.1,282.642,6.35,6.35,0,0,1,6.119,281.5a7.687,7.687,0,0,1,2.6-.419,9.072,9.072,0,0,1,2.614.35,6.712,6.712,0,0,1,2.032.983,6.44,6.44,0,0,1,1.493,1.517,7.621,7.621,0,0,1,.978,1.93l-1.682.778a5.7,5.7,0,0,0-2.142-2.873,6.061,6.061,0,0,0-3.32-.867,6.088,6.088,0,0,0-1.87.267,4.545,4.545,0,0,0-1.4.709,3,3,0,0,0-1.191,2.41,3.531,3.531,0,0,0,.28,1.474,2.947,2.947,0,0,0,.959,1.119,7.846,7.846,0,0,0,1.765.942q1.089.438,2.746.956a22.694,22.694,0,0,1,2.833,1.064,8.114,8.114,0,0,1,2,1.277,4.745,4.745,0,0,1,1.205,1.638,5.416,5.416,0,0,1,.4,2.177,4.979,4.979,0,0,1-.548,2.336,5.239,5.239,0,0,1-1.5,1.775,7.207,7.207,0,0,1-2.285,1.133,9.7,9.7,0,0,1-2.867.41,7.983,7.983,0,0,1-4.9-1.467A7.348,7.348,0,0,1,1.627,297.1Z" transform="translate(-1.627)"/><path d="M19.291,294.8a9.156,9.156,0,0,1,.574-3.4,6.991,6.991,0,0,1,1.5-2.379,6.2,6.2,0,0,1,2.071-1.4,6.1,6.1,0,0,1,2.318-.465,5.807,5.807,0,0,1,2.4.492,5.222,5.222,0,0,1,1.9,1.456,7.151,7.151,0,0,1,1.264,2.406,10.809,10.809,0,0,1,.465,3.316v.369H21.219a7.235,7.235,0,0,0,.376,2.432,5.555,5.555,0,0,0,1.005,1.786,4.245,4.245,0,0,0,3.267,1.5,4.8,4.8,0,0,0,2.7-.694,6.7,6.7,0,0,0,1.894-2.012l1.2.961a7.764,7.764,0,0,1-2.4,2.447,6.45,6.45,0,0,1-3.521.9,6.316,6.316,0,0,1-2.461-.492,5.647,5.647,0,0,1-2.054-1.476,7.494,7.494,0,0,1-1.409-2.407A9.568,9.568,0,0,1,19.291,294.8Zm1.955-1.148H29.9a9.369,9.369,0,0,0-.376-1.932,4.94,4.94,0,0,0-.793-1.567,3.482,3.482,0,0,0-1.271-1.031,3.98,3.98,0,0,0-1.743-.364,4.118,4.118,0,0,0-1.545.295,4.011,4.011,0,0,0-1.347.9,5.1,5.1,0,0,0-1.025,1.519A7.052,7.052,0,0,0,21.246,293.648Z" transform="translate(-1.627)"/><path d="M35.424,302.193V287.441h1.928v2.324a10.9,10.9,0,0,1,2.467-1.839,6.46,6.46,0,0,1,3.165-.772,4.353,4.353,0,0,1,3.288,1.148,4.475,4.475,0,0,1,1.1,3.227v10.664H45.445V291.884a3.287,3.287,0,0,0-.711-2.317,2.92,2.92,0,0,0-2.228-.759,5.409,5.409,0,0,0-2.659.684,12.156,12.156,0,0,0-2.5,1.887v10.814Z" transform="translate(-1.627)"/><path d="M50.654,299.854l1.231-1.122a6.585,6.585,0,0,0,1.948,1.56,5.649,5.649,0,0,0,2.646.575,5.1,5.1,0,0,0,2.871-.665,2.19,2.19,0,0,0,.97-1.926,2.029,2.029,0,0,0-.957-1.823,10.483,10.483,0,0,0-3.1-1.125l-2.213-.689a5.193,5.193,0,0,1-1.629-.8,3.18,3.18,0,0,1-.964-1.161,3.8,3.8,0,0,1-.321-1.652,3.4,3.4,0,0,1,.335-1.484,3.626,3.626,0,0,1,.977-1.239,4.818,4.818,0,0,1,1.566-.841,6.692,6.692,0,0,1,2.126-.308,7.844,7.844,0,0,1,3.2.574,7.517,7.517,0,0,1,2.269,1.56l-1.093,1.286a6.531,6.531,0,0,0-1.9-1.327,5.661,5.661,0,0,0-2.406-.493,5.172,5.172,0,0,0-1.476.181,2.858,2.858,0,0,0-.978.485,2,2,0,0,0-.561.687,1.828,1.828,0,0,0-.184.8,1.786,1.786,0,0,0,.832,1.6,8.983,8.983,0,0,0,2.77.991l2.416.736a5.545,5.545,0,0,1,1.769.869,3.464,3.464,0,0,1,1.056,1.289,4.439,4.439,0,0,1,.344,1.864,3.609,3.609,0,0,1-.437,1.792,4.1,4.1,0,0,1-1.19,1.331,5.334,5.334,0,0,1-1.8.818,9.2,9.2,0,0,1-2.311.272,7.735,7.735,0,0,1-3.466-.734A6.339,6.339,0,0,1,50.654,299.854Z" transform="translate(-1.627)"/><path d="M64.764,294.824a9.342,9.342,0,0,1,.532-3.275,7.173,7.173,0,0,1,1.441-2.406,6.029,6.029,0,0,1,2.131-1.483,6.707,6.707,0,0,1,2.588-.506,6.619,6.619,0,0,1,2.56.506,6.062,6.062,0,0,1,2.128,1.483,7.177,7.177,0,0,1,1.443,2.406,10.328,10.328,0,0,1,0,6.556,7.257,7.257,0,0,1-1.443,2.406A6.007,6.007,0,0,1,74.016,302a6.741,6.741,0,0,1-5.12,0,6.088,6.088,0,0,1-2.145-1.491,7.118,7.118,0,0,1-1.455-2.406A9.326,9.326,0,0,1,64.764,294.824Zm1.927-.028a8.927,8.927,0,0,0,.294,2.325,5.776,5.776,0,0,0,.9,1.921,4.522,4.522,0,0,0,1.5,1.319,4.621,4.621,0,0,0,4.066.041,4.466,4.466,0,0,0,1.486-1.251,5.706,5.706,0,0,0,.938-1.9,8.757,8.757,0,0,0,.321-2.455,8.381,8.381,0,0,0-.307-2.29,6,6,0,0,0-.9-1.9,4.511,4.511,0,0,0-1.471-1.306,4.167,4.167,0,0,0-2.061-.492,4.356,4.356,0,0,0-2.006.451,4.422,4.422,0,0,0-1.5,1.245,5.613,5.613,0,0,0-.938,1.9A8.559,8.559,0,0,0,66.691,294.8Z" transform="translate(-1.627)"/><path d="M81.771,302.193V287.441H83.7v2.937h.055a7.5,7.5,0,0,1,2.276-2.308,6.423,6.423,0,0,1,3.575-.916h.342l-.191,1.818h-.287a1.338,1.338,0,0,1-.192-.013.848.848,0,0,0-.109-.014,5.506,5.506,0,0,0-3.213.955,7,7,0,0,0-2.256,2.715v9.578Z" transform="translate(-1.627)"/><path d="M91.383,299.854l1.23-1.122a6.589,6.589,0,0,0,1.949,1.56,5.648,5.648,0,0,0,2.645.575,5.093,5.093,0,0,0,2.871-.665,2.189,2.189,0,0,0,.971-1.926,2.031,2.031,0,0,0-.957-1.823,10.492,10.492,0,0,0-3.1-1.125l-2.213-.689a5.193,5.193,0,0,1-1.629-.8,3.177,3.177,0,0,1-.963-1.161,3.8,3.8,0,0,1-.322-1.652,3.412,3.412,0,0,1,.335-1.484,3.629,3.629,0,0,1,.978-1.239,4.813,4.813,0,0,1,1.565-.841,6.692,6.692,0,0,1,2.126-.308,7.837,7.837,0,0,1,3.2.574,7.509,7.509,0,0,1,2.27,1.56l-1.094,1.286a6.514,6.514,0,0,0-1.9-1.327,5.664,5.664,0,0,0-2.406-.493,5.18,5.18,0,0,0-1.477.181,2.867,2.867,0,0,0-.978.485,2.007,2.007,0,0,0-.56.687,1.83,1.83,0,0,0-.185.8,1.788,1.788,0,0,0,.832,1.6,8.991,8.991,0,0,0,2.771.991l2.416.736a5.529,5.529,0,0,1,1.768.869,3.455,3.455,0,0,1,1.056,1.289,4.423,4.423,0,0,1,.345,1.864,3.61,3.61,0,0,1-.438,1.792,4.094,4.094,0,0,1-1.189,1.331,5.339,5.339,0,0,1-1.805.818,9.189,9.189,0,0,1-2.31.272,7.729,7.729,0,0,1-3.466-.734A6.331,6.331,0,0,1,91.383,299.854Z" transform="translate(-1.627)"/><path d="M112.068,294.824a9.512,9.512,0,0,1,.557-3.425,7.014,7.014,0,0,1,1.477-2.393,5.736,5.736,0,0,1,2.116-1.4,6.823,6.823,0,0,1,2.427-.451,6.24,6.24,0,0,1,2.084.321,5.051,5.051,0,0,1,1.58.882,6.194,6.194,0,0,1,1.162,1.292,8.448,8.448,0,0,1,.82,1.538l-1.641.725a6.013,6.013,0,0,0-1.565-2.3,3.712,3.712,0,0,0-2.495-.8,4.707,4.707,0,0,0-1.648.308,3.8,3.8,0,0,0-1.483,1.025A5.37,5.37,0,0,0,114.4,292a8.47,8.47,0,0,0-.4,2.8,8.687,8.687,0,0,0,.349,2.584,5.812,5.812,0,0,0,.95,1.887,4.133,4.133,0,0,0,1.429,1.176,3.992,3.992,0,0,0,1.8.41,3.928,3.928,0,0,0,2.5-.745,6.671,6.671,0,0,0,1.743-2.4l1.558.67a11.231,11.231,0,0,1-.984,1.7,5.733,5.733,0,0,1-1.265,1.305,5.6,5.6,0,0,1-1.613.827,6.418,6.418,0,0,1-2.017.294,6.016,6.016,0,0,1-2.419-.5,5.817,5.817,0,0,1-2.041-1.491,7.3,7.3,0,0,1-1.395-2.406A9.6,9.6,0,0,1,112.068,294.824Z" transform="translate(-1.627)"/><path d="M126.6,298.738a4.208,4.208,0,0,1,.5-2.027,4.99,4.99,0,0,1,1.682-1.72,12.522,12.522,0,0,1,3.083-1.4,30.63,30.63,0,0,1,4.724-1.037V291.8a3.083,3.083,0,0,0-.765-2.292,3.049,3.049,0,0,0-2.225-.75,6.569,6.569,0,0,0-3.045.661,12.466,12.466,0,0,0-2.458,1.679l-1.047-1.212a11.826,11.826,0,0,1,2.94-1.974,8.8,8.8,0,0,1,3.788-.754A4.656,4.656,0,0,1,137.4,288.4a4.965,4.965,0,0,1,1.123,3.455v6.7a21.117,21.117,0,0,0,.1,2.213,5.755,5.755,0,0,0,.315,1.433h-2q-.136-.481-.24-.97a5.589,5.589,0,0,1-.1-1.147,9.226,9.226,0,0,1-2.709,1.772,8.038,8.038,0,0,1-3.106.591,4.464,4.464,0,0,1-3.083-.98A3.462,3.462,0,0,1,126.6,298.738Zm1.927-.245a2.152,2.152,0,0,0,.71,1.76,3,3,0,0,0,1.965.586,6.884,6.884,0,0,0,2.907-.614,9.1,9.1,0,0,0,2.485-1.705v-4.585a30,30,0,0,0-3.924.88,10.919,10.919,0,0,0-2.471,1.058,3.687,3.687,0,0,0-1.3,1.228A2.76,2.76,0,0,0,128.529,298.493Z" transform="translate(-1.627)"/><path d="M142.816,307.8V287.441h1.928v2.093a10.232,10.232,0,0,1,2.078-1.662,5.383,5.383,0,0,1,2.858-.718,6.011,6.011,0,0,1,2.379.478,5.23,5.23,0,0,1,1.927,1.417,6.954,6.954,0,0,1,1.285,2.381,12.144,12.144,0,0,1,0,6.754,6.688,6.688,0,0,1-1.312,2.377,5.325,5.325,0,0,1-1.982,1.406,6.443,6.443,0,0,1-2.475.472,5.456,5.456,0,0,1-2.6-.625,8.949,8.949,0,0,1-2.16-1.618v7.6Zm1.928-9.368a9.1,9.1,0,0,0,2.2,1.793,4.842,4.842,0,0,0,2.393.616,4.536,4.536,0,0,0,1.811-.355,3.652,3.652,0,0,0,1.415-1.082,5.3,5.3,0,0,0,.923-1.861,9.628,9.628,0,0,0,.335-2.71,9.148,9.148,0,0,0-.348-2.669,5.351,5.351,0,0,0-.971-1.882,4,4,0,0,0-1.429-1.11,4.2,4.2,0,0,0-1.736-.362,4.612,4.612,0,0,0-2.447.657,10.627,10.627,0,0,0-2.147,1.78Z" transform="translate(-1.627)"/><path d="M157.842,289.1v-1.654h2.584V282.15h1.928v5.291h3.828V289.1h-3.828v9.267a2.909,2.909,0,0,0,.478,1.8,2.225,2.225,0,0,0,1.846.623h.827a2.466,2.466,0,0,0,.718-.1v1.531c-.228.036-.52.074-.875.11a10.323,10.323,0,0,1-1.039.054,4.251,4.251,0,0,1-3-.854,3.743,3.743,0,0,1-.882-2.782V289.1Z" transform="translate(-1.627)"/><path d="M169.5,298.105V287.441h1.928v10.322a3.354,3.354,0,0,0,.7,2.331,2.915,2.915,0,0,0,2.242.759,5.211,5.211,0,0,0,2.646-.7,13.709,13.709,0,0,0,2.481-1.88V287.441h1.928v14.752H179.5v-2.324a11.224,11.224,0,0,1-2.468,1.852,6.29,6.29,0,0,1-3.137.786,4.312,4.312,0,0,1-3.3-1.162A4.555,4.555,0,0,1,169.5,298.105Z" transform="translate(-1.627)"/><path d="M185.91,302.193V287.441h1.928v2.937h.055a7.49,7.49,0,0,1,2.276-2.308,6.423,6.423,0,0,1,3.575-.916h.342l-.191,1.818h-.288a1.323,1.323,0,0,1-.191-.013.893.893,0,0,0-.109-.014,5.506,5.506,0,0,0-3.213.955,7,7,0,0,0-2.256,2.715v9.578Z" transform="translate(-1.627)"/><path d="M195.316,294.8a9.156,9.156,0,0,1,.575-3.4,6.961,6.961,0,0,1,1.5-2.379,6.193,6.193,0,0,1,2.071-1.4,6.092,6.092,0,0,1,2.317-.465,5.815,5.815,0,0,1,2.4.492,5.219,5.219,0,0,1,1.9,1.456,7.17,7.17,0,0,1,1.265,2.406,10.841,10.841,0,0,1,.464,3.316v.369H197.244a7.235,7.235,0,0,0,.376,2.432,5.555,5.555,0,0,0,1,1.786,4.25,4.25,0,0,0,3.268,1.5,4.8,4.8,0,0,0,2.7-.694,6.711,6.711,0,0,0,1.893-2.012l1.2.961a7.764,7.764,0,0,1-2.4,2.447,6.444,6.444,0,0,1-3.52.9,6.313,6.313,0,0,1-2.461-.492,5.65,5.65,0,0,1-2.055-1.476,7.474,7.474,0,0,1-1.408-2.407A9.544,9.544,0,0,1,195.316,294.8Zm1.955-1.148h8.655a9.5,9.5,0,0,0-.376-1.932,4.96,4.96,0,0,0-.793-1.567,3.493,3.493,0,0,0-1.272-1.031,3.98,3.98,0,0,0-1.743-.364,4.118,4.118,0,0,0-1.545.295,4.007,4.007,0,0,0-1.346.9,5.1,5.1,0,0,0-1.026,1.519A7.08,7.08,0,0,0,197.271,293.648Z" transform="translate(-1.627)"/><path d="M216.959,294.8a10.662,10.662,0,0,1,.478-3.361,6.75,6.75,0,0,1,1.318-2.386,5.4,5.4,0,0,1,1.986-1.425,6.343,6.343,0,0,1,2.459-.477,5.665,5.665,0,0,1,2.67.648,7.357,7.357,0,0,1,2.095,1.622v-7.958h1.928v17.09a21.063,21.063,0,0,0,.095,2.208,4.952,4.952,0,0,0,.342,1.429h-2.025a6.7,6.7,0,0,1-.239-.991,7.063,7.063,0,0,1-.1-1.184,9.045,9.045,0,0,1-2.081,1.706,5.434,5.434,0,0,1-2.849.715,6.207,6.207,0,0,1-2.376-.459,5.017,5.017,0,0,1-1.931-1.412,7.1,7.1,0,0,1-1.291-2.386A10.692,10.692,0,0,1,216.959,294.8Zm1.928.028a8.955,8.955,0,0,0,.348,2.641,5.38,5.38,0,0,0,.966,1.862,3.869,3.869,0,0,0,1.431,1.095,4.265,4.265,0,0,0,1.732.356,4.651,4.651,0,0,0,2.458-.651,10.524,10.524,0,0,0,2.143-1.772V291.19a9.523,9.523,0,0,0-2.2-1.807,4.766,4.766,0,0,0-2.4-.629,4.458,4.458,0,0,0-1.8.362,3.667,3.667,0,0,0-1.417,1.109,5.519,5.519,0,0,0-.924,1.9A9.716,9.716,0,0,0,218.887,294.831Z" transform="translate(-1.627)"/><path d="M233.475,298.738a4.208,4.208,0,0,1,.5-2.027,4.99,4.99,0,0,1,1.682-1.72,12.522,12.522,0,0,1,3.083-1.4,30.63,30.63,0,0,1,4.724-1.037V291.8a3.083,3.083,0,0,0-.765-2.292,3.049,3.049,0,0,0-2.225-.75,6.569,6.569,0,0,0-3.045.661,12.466,12.466,0,0,0-2.458,1.679l-1.047-1.212a11.826,11.826,0,0,1,2.94-1.974,8.807,8.807,0,0,1,3.788-.754,4.656,4.656,0,0,1,3.616,1.243,4.965,4.965,0,0,1,1.123,3.455v6.7a21.117,21.117,0,0,0,.1,2.213,5.755,5.755,0,0,0,.315,1.433h-1.995q-.137-.481-.24-.97a5.589,5.589,0,0,1-.1-1.147,9.226,9.226,0,0,1-2.709,1.772,8.038,8.038,0,0,1-3.106.591,4.464,4.464,0,0,1-3.083-.98A3.462,3.462,0,0,1,233.475,298.738Zm1.927-.245a2.152,2.152,0,0,0,.71,1.76,3,3,0,0,0,1.965.586,6.884,6.884,0,0,0,2.907-.614,9.1,9.1,0,0,0,2.485-1.705v-4.585a30,30,0,0,0-3.924.88,10.919,10.919,0,0,0-2.471,1.058,3.687,3.687,0,0,0-1.3,1.228A2.76,2.76,0,0,0,235.4,298.493Z" transform="translate(-1.627)"/><path d="M248.117,289.1v-1.654H250.7V282.15h1.928v5.291h3.828V289.1h-3.828v9.267a2.909,2.909,0,0,0,.478,1.8,2.226,2.226,0,0,0,1.846.623h.827a2.462,2.462,0,0,0,.718-.1v1.531c-.227.036-.519.074-.875.11a10.308,10.308,0,0,1-1.039.054,4.251,4.251,0,0,1-3-.854,3.743,3.743,0,0,1-.882-2.782V289.1Z" transform="translate(-1.627)"/><path d="M258.9,298.738a4.2,4.2,0,0,1,.506-2.027,4.99,4.99,0,0,1,1.682-1.72,12.5,12.5,0,0,1,3.083-1.4,30.615,30.615,0,0,1,4.723-1.037V291.8a3.083,3.083,0,0,0-.764-2.292,3.049,3.049,0,0,0-2.225-.75,6.574,6.574,0,0,0-3.046.661,12.5,12.5,0,0,0-2.458,1.679l-1.047-1.212a11.831,11.831,0,0,1,2.941-1.974,8.8,8.8,0,0,1,3.788-.754A4.656,4.656,0,0,1,269.7,288.4a4.965,4.965,0,0,1,1.123,3.455v6.7a20.845,20.845,0,0,0,.1,2.213,5.759,5.759,0,0,0,.314,1.433h-1.994q-.138-.481-.24-.97a5.583,5.583,0,0,1-.1-1.147,9.2,9.2,0,0,1-2.709,1.772,8.033,8.033,0,0,1-3.105.591,4.463,4.463,0,0,1-3.083-.98A3.462,3.462,0,0,1,258.9,298.738Zm1.928-.245a2.149,2.149,0,0,0,.71,1.76,3,3,0,0,0,1.965.586,6.887,6.887,0,0,0,2.907-.614,9.08,9.08,0,0,0,2.484-1.705v-4.585a29.985,29.985,0,0,0-3.923.88,10.9,10.9,0,0,0-2.471,1.058,3.687,3.687,0,0,0-1.3,1.228A2.76,2.76,0,0,0,260.832,298.493Z" transform="translate(-1.627)"/><path d="M810.426,302.192V281.465H817.3a8.92,8.92,0,0,1,5.32,1.4,4.908,4.908,0,0,1,1.932,4.254A6.033,6.033,0,0,1,824,289.8a4.85,4.85,0,0,1-1.537,1.821,6.755,6.755,0,0,1-2.363,1.048,12.653,12.653,0,0,1-3,.334h-4.7v9.188Zm1.982-10.951h4.84a7.14,7.14,0,0,0,3.938-.911,3.494,3.494,0,0,0,1.38-3.157,3.32,3.32,0,0,0-1.353-2.992,7.263,7.263,0,0,0-3.992-.9h-4.813Z" transform="translate(-1.627)"/><path d="M827.461,302.192V287.44h1.928v2.937h.054a7.5,7.5,0,0,1,2.278-2.308,6.415,6.415,0,0,1,3.574-.916h.342l-.192,1.818h-.287a1.323,1.323,0,0,1-.191-.013.856.856,0,0,0-.11-.014,5.507,5.507,0,0,0-3.212.955,7.012,7.012,0,0,0-2.256,2.715v9.578Z" transform="translate(-1.627)"/><path d="M836.922,294.823a9.342,9.342,0,0,1,.533-3.275,7.19,7.19,0,0,1,1.441-2.406,6.02,6.02,0,0,1,2.131-1.483,6.707,6.707,0,0,1,2.588-.506,6.618,6.618,0,0,1,2.559.506,6.066,6.066,0,0,1,2.129,1.483,7.177,7.177,0,0,1,1.443,2.406,10.346,10.346,0,0,1,0,6.556,7.257,7.257,0,0,1-1.443,2.406A6.011,6.011,0,0,1,846.174,302a6.739,6.739,0,0,1-5.119,0,6.07,6.07,0,0,1-2.145-1.491,7.134,7.134,0,0,1-1.455-2.406A9.325,9.325,0,0,1,836.922,294.823Zm1.928-.028a8.843,8.843,0,0,0,.295,2.325,5.753,5.753,0,0,0,.9,1.921,4.535,4.535,0,0,0,1.5,1.319,4.621,4.621,0,0,0,4.066.041,4.443,4.443,0,0,0,1.485-1.251,5.689,5.689,0,0,0,.939-1.9,8.794,8.794,0,0,0,.321-2.455,8.381,8.381,0,0,0-.307-2.29,6.028,6.028,0,0,0-.9-1.9,4.508,4.508,0,0,0-1.47-1.306,4.17,4.17,0,0,0-2.061-.492,4.35,4.35,0,0,0-2.006.451,4.435,4.435,0,0,0-1.5,1.245,5.63,5.63,0,0,0-.937,1.9A8.523,8.523,0,0,0,838.85,294.8Z" transform="translate(-1.627)"/><path d="M853.082,294.823a9.512,9.512,0,0,1,.557-3.425,7.028,7.028,0,0,1,1.476-2.393,5.747,5.747,0,0,1,2.117-1.4,6.818,6.818,0,0,1,2.426-.451,6.252,6.252,0,0,1,2.086.321,5.03,5.03,0,0,1,1.578.882,6.139,6.139,0,0,1,1.162,1.292,8.453,8.453,0,0,1,.821,1.538l-1.641.725a6.011,6.011,0,0,0-1.564-2.3,3.716,3.716,0,0,0-2.5-.8,4.7,4.7,0,0,0-1.647.308,3.784,3.784,0,0,0-1.484,1.025,5.353,5.353,0,0,0-1.059,1.86,8.441,8.441,0,0,0-.4,2.8,8.719,8.719,0,0,0,.349,2.584,5.832,5.832,0,0,0,.95,1.887,4.142,4.142,0,0,0,1.429,1.176,4,4,0,0,0,1.8.41,3.93,3.93,0,0,0,2.5-.745,6.647,6.647,0,0,0,1.742-2.4l1.559.67a11.065,11.065,0,0,1-.984,1.7,5.75,5.75,0,0,1-1.264,1.305,5.644,5.644,0,0,1-1.613.827,6.429,6.429,0,0,1-2.018.294,6.028,6.028,0,0,1-2.42-.5,5.844,5.844,0,0,1-2.041-1.491A7.285,7.285,0,0,1,853.6,298.1,9.6,9.6,0,0,1,853.082,294.823Z" transform="translate(-1.627)"/><path d="M867.7,294.8a9.177,9.177,0,0,1,.574-3.4,7.006,7.006,0,0,1,1.5-2.379,6.2,6.2,0,0,1,2.073-1.4,6.083,6.083,0,0,1,2.316-.465,5.812,5.812,0,0,1,2.4.492,5.222,5.222,0,0,1,1.9,1.456,7.151,7.151,0,0,1,1.264,2.406,10.81,10.81,0,0,1,.464,3.316v.369H869.625a7.21,7.21,0,0,0,.377,2.432,5.553,5.553,0,0,0,1,1.786,4.254,4.254,0,0,0,3.267,1.5,4.807,4.807,0,0,0,2.7-.694,6.7,6.7,0,0,0,1.892-2.012l1.2.961a7.761,7.761,0,0,1-2.4,2.447,6.447,6.447,0,0,1-3.522.9,6.327,6.327,0,0,1-2.461-.492,5.663,5.663,0,0,1-2.054-1.476,7.492,7.492,0,0,1-1.408-2.407A9.567,9.567,0,0,1,867.7,294.8Zm1.955-1.148h8.655a9.5,9.5,0,0,0-.375-1.932,5,5,0,0,0-.793-1.567,3.493,3.493,0,0,0-1.272-1.031,3.984,3.984,0,0,0-1.744-.364,4.122,4.122,0,0,0-1.545.3,4.007,4.007,0,0,0-1.346.9,5.059,5.059,0,0,0-1.025,1.519A7.08,7.08,0,0,0,869.652,293.647Z" transform="translate(-1.627)"/><path d="M882.518,299.853l1.23-1.122a6.589,6.589,0,0,0,1.949,1.56,5.648,5.648,0,0,0,2.645.575,5.093,5.093,0,0,0,2.871-.665,2.189,2.189,0,0,0,.971-1.926,2.029,2.029,0,0,0-.957-1.823,10.481,10.481,0,0,0-3.1-1.125l-2.213-.689a5.2,5.2,0,0,1-1.629-.8,3.187,3.187,0,0,1-.963-1.161,3.8,3.8,0,0,1-.322-1.652,3.385,3.385,0,0,1,.336-1.484,3.626,3.626,0,0,1,.977-1.239,4.818,4.818,0,0,1,1.566-.841,6.69,6.69,0,0,1,2.125-.308,7.834,7.834,0,0,1,3.2.574,7.509,7.509,0,0,1,2.27,1.56l-1.094,1.286a6.514,6.514,0,0,0-1.9-1.327,5.662,5.662,0,0,0-2.407-.493,5.182,5.182,0,0,0-1.476.181,2.835,2.835,0,0,0-.977.486,1.973,1.973,0,0,0-.56.686,1.831,1.831,0,0,0-.186.8,1.789,1.789,0,0,0,.832,1.6,9.04,9.04,0,0,0,2.772.99l2.416.736a5.513,5.513,0,0,1,1.767.869,3.458,3.458,0,0,1,1.057,1.289,4.455,4.455,0,0,1,.344,1.864,3.606,3.606,0,0,1-.438,1.793,4.079,4.079,0,0,1-1.189,1.33,5.321,5.321,0,0,1-1.8.818,9.186,9.186,0,0,1-2.311.272,7.724,7.724,0,0,1-3.464-.734A6.326,6.326,0,0,1,882.518,299.853Z" transform="translate(-1.627)"/><path d="M896.408,299.853l1.231-1.122a6.589,6.589,0,0,0,1.949,1.56,5.644,5.644,0,0,0,2.644.575,5.094,5.094,0,0,0,2.872-.665,2.188,2.188,0,0,0,.97-1.926,2.027,2.027,0,0,0-.957-1.823,10.483,10.483,0,0,0-3.1-1.125l-2.213-.689a5.2,5.2,0,0,1-1.629-.8,3.177,3.177,0,0,1-.963-1.161,3.789,3.789,0,0,1-.322-1.652,3.385,3.385,0,0,1,.336-1.484,3.611,3.611,0,0,1,.976-1.239,4.823,4.823,0,0,1,1.567-.841,6.69,6.69,0,0,1,2.125-.308,7.837,7.837,0,0,1,3.2.574,7.5,7.5,0,0,1,2.269,1.56l-1.093,1.286a6.518,6.518,0,0,0-1.9-1.327,5.658,5.658,0,0,0-2.406-.493,5.194,5.194,0,0,0-1.477.181,2.839,2.839,0,0,0-.976.486,1.976,1.976,0,0,0-.561.686,1.83,1.83,0,0,0-.185.8,1.789,1.789,0,0,0,.832,1.6,9.021,9.021,0,0,0,2.771.99l2.416.736a5.529,5.529,0,0,1,1.768.869,3.467,3.467,0,0,1,1.057,1.289,4.456,4.456,0,0,1,.343,1.864,3.605,3.605,0,0,1-.437,1.793,4.082,4.082,0,0,1-1.19,1.33,5.316,5.316,0,0,1-1.8.818,9.192,9.192,0,0,1-2.311.272,7.731,7.731,0,0,1-3.465-.734A6.343,6.343,0,0,1,896.408,299.853Z" transform="translate(-1.627)"/><path d="M917.121,294.8a10.66,10.66,0,0,1,.479-3.361,6.734,6.734,0,0,1,1.318-2.386,5.39,5.39,0,0,1,1.986-1.425,6.343,6.343,0,0,1,2.459-.477,5.667,5.667,0,0,1,2.67.648,7.338,7.338,0,0,1,2.094,1.622v-7.958h1.928v17.09a21.342,21.342,0,0,0,.1,2.208,4.985,4.985,0,0,0,.342,1.429h-2.025a6.709,6.709,0,0,1-.238-.991,7.065,7.065,0,0,1-.1-1.184,9.061,9.061,0,0,1-2.08,1.706,5.435,5.435,0,0,1-2.85.715,6.2,6.2,0,0,1-2.375-.459,5.017,5.017,0,0,1-1.931-1.412,7.065,7.065,0,0,1-1.291-2.386A10.69,10.69,0,0,1,917.121,294.8Zm1.928.028a8.953,8.953,0,0,0,.349,2.641,5.379,5.379,0,0,0,.965,1.862,3.88,3.88,0,0,0,1.432,1.095,4.262,4.262,0,0,0,1.732.356,4.645,4.645,0,0,0,2.457-.651,10.47,10.47,0,0,0,2.143-1.772v-7.172a9.523,9.523,0,0,0-2.2-1.807,4.757,4.757,0,0,0-2.4-.629,4.449,4.449,0,0,0-1.8.362,3.656,3.656,0,0,0-1.418,1.109,5.484,5.484,0,0,0-.924,1.9A9.677,9.677,0,0,0,919.049,294.83Z" transform="translate(-1.627)"/><path d="M933.637,298.737a4.209,4.209,0,0,1,.506-2.027,5,5,0,0,1,1.681-1.72,12.548,12.548,0,0,1,3.084-1.4,30.641,30.641,0,0,1,4.723-1.037V291.8a3.08,3.08,0,0,0-.764-2.291,3.046,3.046,0,0,0-2.224-.751,6.575,6.575,0,0,0-3.047.661,12.46,12.46,0,0,0-2.457,1.679l-1.047-1.212a11.8,11.8,0,0,1,2.939-1.974,8.811,8.811,0,0,1,3.789-.754,4.655,4.655,0,0,1,3.616,1.243,4.96,4.96,0,0,1,1.123,3.455v6.695a21.434,21.434,0,0,0,.1,2.213,5.847,5.847,0,0,0,.315,1.433h-1.994q-.138-.482-.241-.97a5.66,5.66,0,0,1-.1-1.147,9.213,9.213,0,0,1-2.709,1.772,8.034,8.034,0,0,1-3.106.591,4.463,4.463,0,0,1-3.082-.98A3.459,3.459,0,0,1,933.637,298.737Zm1.927-.245a2.15,2.15,0,0,0,.711,1.76,3,3,0,0,0,1.965.586,6.876,6.876,0,0,0,2.906-.614,9.07,9.07,0,0,0,2.485-1.7v-4.585a30.081,30.081,0,0,0-3.924.88,10.959,10.959,0,0,0-2.471,1.058,3.7,3.7,0,0,0-1.3,1.228A2.76,2.76,0,0,0,935.564,298.492Z" transform="translate(-1.627)"/><path d="M948.279,289.094V287.44h2.584v-5.291h1.928v5.291h3.828v1.654h-3.828v9.267a2.909,2.909,0,0,0,.479,1.8,2.225,2.225,0,0,0,1.845.623h.828a2.455,2.455,0,0,0,.717-.1v1.531c-.226.036-.519.074-.875.11a10.293,10.293,0,0,1-1.039.054,4.25,4.25,0,0,1-3-.854,3.744,3.744,0,0,1-.883-2.782v-9.653Z" transform="translate(-1.627)"/><path d="M959.066,298.737a4.209,4.209,0,0,1,.506-2.027,5.017,5.017,0,0,1,1.682-1.72,12.531,12.531,0,0,1,3.084-1.4,30.615,30.615,0,0,1,4.723-1.037V291.8a3.08,3.08,0,0,0-.764-2.291,3.047,3.047,0,0,0-2.225-.751,6.578,6.578,0,0,0-3.047.661,12.519,12.519,0,0,0-2.457,1.679l-1.047-1.212a11.826,11.826,0,0,1,2.94-1.974,8.808,8.808,0,0,1,3.789-.754,4.652,4.652,0,0,1,3.615,1.243,4.96,4.96,0,0,1,1.123,3.455v6.695a21.117,21.117,0,0,0,.1,2.213,5.851,5.851,0,0,0,.314,1.433H969.4q-.138-.482-.24-.97a5.66,5.66,0,0,1-.1-1.147,9.213,9.213,0,0,1-2.709,1.772,8.041,8.041,0,0,1-3.106.591,4.463,4.463,0,0,1-3.082-.98A3.46,3.46,0,0,1,959.066,298.737Zm1.928-.245a2.147,2.147,0,0,0,.711,1.76,3,3,0,0,0,1.965.586,6.876,6.876,0,0,0,2.906-.614,9.07,9.07,0,0,0,2.485-1.7v-4.585a30.081,30.081,0,0,0-3.924.88,10.939,10.939,0,0,0-2.471,1.058,3.7,3.7,0,0,0-1.3,1.228A2.76,2.76,0,0,0,960.994,298.492Z" transform="translate(-1.627)"/><path class="cls-1" d="M476.516,149.63a19.459,19.459,0,0,1,2.694.19,19.219,19.219,0,0,1,19.2-18.277c.248,0,.5.009.742.018a34.526,34.526,0,0,1,37.742-23,45.5,45.5,0,1,0-75.584,48.379A19.429,19.429,0,0,1,476.516,149.63Z" transform="translate(-1.627)"/><path class="cls-2" d="M491.363,132.88a19.2,19.2,0,0,1,7.051-1.337c.248,0,.5.009.742.018a34.39,34.39,0,0,1,3.155-6.731,7.444,7.444,0,1,0-10.948,8.05Z" transform="translate(-1.627)"/><path class="cls-3" d="M481.613,141.417a19.284,19.284,0,0,1,9.75-8.537,7.444,7.444,0,1,1,10.948-8.05,34.722,34.722,0,0,1,9.192-10.015,20.138,20.138,0,1,0-29.89,26.6Z" transform="translate(-1.627)"/><path class="cls-4" d="M472.11,150.137a19.321,19.321,0,0,1,7.1-.317,19.091,19.091,0,0,1,2.4-8.4,20.138,20.138,0,1,1,29.89-26.6,34.361,34.361,0,0,1,11.747-5.542,33,33,0,1,0-51.14,40.864Z" transform="translate(-1.627)"/><path d="M559.477,190.061H476.516a20.965,20.965,0,1,1,1.331-41.887,20.69,20.69,0,0,1,20.259-18.129,36.028,36.028,0,0,1,69.341,7.241,26.99,26.99,0,0,1-7.97,52.775ZM476.516,151.13a17.966,17.966,0,1,0,0,35.931h82.961a23.99,23.99,0,0,0,6.227-47.156l-.976-.262-.124-1a33.027,33.027,0,0,0-64.029-6.594l-.361,1.058-1.116-.044c-.227-.008-.455-.017-.684-.017a17.693,17.693,0,0,0-17.706,16.849l-.079,1.641L479,151.305A18.223,18.223,0,0,0,476.516,151.13Z" transform="translate(-1.627)"/><path class="cls-5" d="M1259.005,199.465a6.976,6.976,0,1,1,6.974-6.971A6.982,6.982,0,0,1,1259.005,199.465Zm0-10.951a3.976,3.976,0,1,0,3.974,3.98A3.982,3.982,0,0,0,1259.005,188.514Zm33.071,4.405v4.267c0,5.924-2.414,8.34-8.331,8.34h-49.459c-5.933,0-8.354-2.416-8.354-8.34v-6.209h-3v6.209c0,7.631,3.714,11.34,11.354,11.34h49.459c7.624,0,11.331-3.709,11.331-11.34v-1.267Zm28.74-35.2h0l-7.649-13.251c-.106-.184-.221-.357-.338-.531l-.162-.246c-.038-.059-.076-.118-.112-.171-.213-.311-.439-.608-.671-.9l-.048-.06c-.045-.057-.09-.114-.135-.166-.239-.286-.489-.558-.8-.874-.057-.058-.113-.116-.161-.163-.252-.248-.514-.482-.781-.709l-.061-.052c-.078-.066-.157-.132-.24-.2-.246-.2-.5-.384-.744-.557-.146-.1-.291-.2-.448-.3-.22-.142-.442-.276-.663-.4-.2-.116-.406-.229-.615-.337-.182-.093-.368-.181-.555-.267-.256-.117-.514-.23-.777-.334-.156-.06-.312-.116-.466-.17-.293-.1-.589-.2-.9-.287-.115-.032-.231-.062-.346-.09l-.081-.02c-.31-.078-.623-.148-.937-.2-.123-.023-.246-.042-.371-.058l-.1-.015c-.305-.045-.611-.086-.924-.111-.142-.011-.286-.017-.429-.023l-.293-.016c-.157-.01-.314-.02-.474-.02h-5.467V74.044c0-7.634-3.707-11.344-11.331-11.344h-49.459c-7.64,0-11.354,3.71-11.354,11.342v42.614l-8.75-5.052a7.793,7.793,0,1,0-7.793,13.5l10.545,6.089v-3.465l-9.045-5.222a4.79,4.79,0,0,1-1.754-6.547,4.788,4.788,0,0,1,6.547-1.754l10.25,5.918v11.063h3V74.042c0-5.925,2.421-8.342,8.354-8.342h49.459c5.917,0,8.331,2.417,8.331,8.344v63.137h-14.409a14.463,14.463,0,0,0-10.324,4.3l-17.289,17.288,1.057,1.061c.651.652,1.333,1.335,1.9,1.9l0,0,1.3,1.3a14.584,14.584,0,0,0,20.57-.021l5.277-5.275h11.925l0,20.671a14.59,14.59,0,0,0,14.536,14.561l.754,0-.008-3-.747,0a11.584,11.584,0,0,1-11.535-11.562l0-23.67h-16.167l-6.156,6.153a11.579,11.579,0,0,1-16.162.183l-.166-.167s-.989-.986-2.131-2.13l15.173-15.172a11.488,11.488,0,0,1,8.2-3.416h22.875c.092,0,.182.007.271.013l.375.02c.1,0,.207.008.308.016.246.021.487.054.731.089l.119.017c.083.012.165.023.253.039.251.045.5.1.746.163l.086.022c.086.022.173.042.253.065.241.068.478.146.715.23.123.042.245.086.367.134.208.081.413.171.615.264.149.069.3.14.445.214.163.084.322.173.486.268.181.1.358.209.526.318.116.076.23.153.353.241.2.141.4.289.594.443l.235.2c.212.18.419.365.629.57l.162.166c.205.21.4.426.6.656l.139.175c.185.23.364.464.537.715l.255.39c.079.119.16.237.232.36l6.055,10.492h0l9.874,17.1v-6Zm-95.65,27.249h-3.974a6.692,6.692,0,1,1,0-13.384h3.973a6.692,6.692,0,1,1,0,13.384Zm-3.974-10.384a3.692,3.692,0,1,0,0,7.384h3.975a3.692,3.692,0,1,0,0-7.384Zm8.962-23.316a7.943,7.943,0,0,0,.925-.782,7.8,7.8,0,0,0-5.513-13.3h-3.274a7.777,7.777,0,0,0-4.588,14.086,7.786,7.786,0,0,0,4.588,14.08h3.278a7.785,7.785,0,0,0,4.584-14.08Zm-7.862-11.086h3.274a4.8,4.8,0,0,1,3.391,8.184,4.626,4.626,0,0,1-3.3,1.4h-3.484a4.611,4.611,0,0,1-3.277-1.4,4.795,4.795,0,0,1,3.391-8.183Zm6.665,20.762a4.755,4.755,0,0,1-3.387,1.4h-3.282a4.791,4.791,0,0,1-.057-9.582h3.4a4.792,4.792,0,0,1,3.328,8.178Z" transform="translate(-1.627)"/><path class="cls-1" d="M1280.151,157.729,1274.874,163a14.584,14.584,0,0,1-20.57.021l-1.3-1.3,0,0c-.566-.565-1.248-1.248-1.9-1.9l-1.057-1.061,17.289-17.288a14.463,14.463,0,0,1,10.324-4.3h8.128V74.107h-53.579v66.826a7.736,7.736,0,0,1,0,8.094v4.5a7.709,7.709,0,0,1,0,8.079v17.873H1285.8V157.73Z" transform="translate(-1.627)"/><rect class="cls-2" x="1230.589" y="74.107" width="53.581" height="26.342"/><rect class="cls-3" x="1230.589" y="100.45" width="53.581" height="26.341"/><path class="cls-4" d="M1267.343,141.478a14.463,14.463,0,0,1,10.324-4.3h8.13V126.794h-53.581v14.137a7.741,7.741,0,0,1,0,8.1v4.108h23.468Z" transform="translate(-1.627)"/><line class="cls-6" x1="314.137" y1="142.198" x2="394.95" y2="142.198"/><polygon class="cls-7" points="392.762 149.677 405.714 142.198 392.762 134.718 392.762 149.677"/><line class="cls-6" x1="647.648" y1="142.198" x2="728.461" y2="142.198"/><polygon class="cls-7" points="726.273 149.677 739.225 142.198 726.273 134.718 726.273 149.677"/><line class="cls-6" x1="1057.461" y1="142.198" x2="1138.274" y2="142.198"/><polygon class="cls-7" points="1136.086 149.677 1149.038 142.198 1136.086 134.718 1136.086 149.677"/><path class="cls-1" d="M860.144,123.165v-78c22.5,0,39,17.461,39,39S882.644,123.165,860.144,123.165Z" transform="translate(-1.627)"/><path class="cls-2" d="M893.939,64.834c-6.743-12.75-18.795-19.669-33.795-19.669V64.834Z" transform="translate(-1.627)"/><path class="cls-3" d="M860.144,64.834v19.5h39.014c0-7.5-1.9-15-5.219-19.5Z" transform="translate(-1.627)"/><path class="cls-4" d="M860.144,103.834h33.795a36.487,36.487,0,0,0,5.219-19.5H860.144Z" transform="translate(-1.627)"/><path d="M860.158,122.892a38.727,38.727,0,1,1,0-77.454v3a35.727,35.727,0,1,0,0,71.454Zm9.183,29.936,1.3-.173v-9.863a50.38,50.38,0,0,0,9.392-2.477l4.96,8.544,1.208-.493a68.92,68.92,0,0,0,16.448-9.539l1.025-.8-4.907-8.512a60.122,60.122,0,0,0,6.706-6.7l8.486,4.9.8-1.035a68.9,68.9,0,0,0,9.459-16.48l.487-1.211-8.432-4.844a65.014,65.014,0,0,0,2.447-9.3h9.706l.166-1.312a68.894,68.894,0,0,0,.6-8.89,67.3,67.3,0,0,0-.683-9.511l-.185-1.287h-9.574a51.656,51.656,0,0,0-2.479-9.487l8.244-4.832-.5-1.206a69.061,69.061,0,0,0-9.591-16.439l-.8-1.02-8.154,4.689a60.11,60.11,0,0,0-6.7-6.713l4.681-8.113-1.035-.8a68.868,68.868,0,0,0-16.478-9.464l-1.2-.484-4.705,8.053a50.365,50.365,0,0,0-9.395-2.479V16.27l-1.3-.173a65.982,65.982,0,0,0-18.4.019l-1.3.176v9.247a51.365,51.365,0,0,0-9.4,2.476L835.581,20l-1.206.488A68.937,68.937,0,0,0,817.9,29.984l-1.03.8,4.628,8.031a60.046,60.046,0,0,0-6.707,6.7l-8.062-4.653-.8,1.022A68.945,68.945,0,0,0,796.349,58.3l-.49,1.2,8.129,4.84a51.633,51.633,0,0,0-2.483,9.5H792.07l-.185,1.287a67.2,67.2,0,0,0-.684,9.511,69,69,0,0,0,.605,8.89l.165,1.312h9.568a65.2,65.2,0,0,0,2.447,9.3l-8.318,4.791.485,1.208a68.916,68.916,0,0,0,9.44,16.485l.8,1.037,8.39-4.847a60.068,60.068,0,0,0,6.7,6.7l-4.87,8.434,1.023.8a68.919,68.919,0,0,0,16.416,9.569l1.2.494,4.975-8.5a51.312,51.312,0,0,0,9.408,2.478v9.841l1.3.177a66.084,66.084,0,0,0,18.4.019Zm-16.7-12.631-1.291-.181a48.8,48.8,0,0,1-11.243-2.948l-1.186-.451L834,145.04a65.921,65.921,0,0,1-13.473-7.856l4.832-8.367-.988-.808a57.027,57.027,0,0,1-8.077-8.075l-.807-.988-8.306,4.8a65.869,65.869,0,0,1-7.743-13.521l8.25-4.751-.454-1.195a61.078,61.078,0,0,1-2.954-11.192l-.211-1.251h-9.438a63.371,63.371,0,0,1-.425-7.2,64.049,64.049,0,0,1,.482-7.8H804.1l.181-1.291a49.692,49.692,0,0,1,2.949-11.321l.447-1.178-8.05-4.793a65.923,65.923,0,0,1,7.864-13.479l8,4.615.807-.989a57.063,57.063,0,0,1,8.081-8.076l.987-.806-4.584-7.954A65.9,65.9,0,0,1,834.3,23.771l4.619,7.943,1.19-.452a48.79,48.79,0,0,1,11.243-2.948l1.291-.181V18.922a62.247,62.247,0,0,1,15-.013v9.224l1.292.181a48.718,48.718,0,0,1,11.23,2.949l1.188.451,4.667-7.988a65.87,65.87,0,0,1,13.524,7.766l-4.634,8.032.987.807a57.054,57.054,0,0,1,8.077,8.086l.806.986,8.089-4.652a66.054,66.054,0,0,1,7.877,13.5l-8.163,4.785.451,1.186a49.673,49.673,0,0,1,2.948,11.321l.181,1.291h9.556a64.211,64.211,0,0,1,.481,7.8,63.089,63.089,0,0,1-.425,7.2H916.2l-.211,1.251a60.976,60.976,0,0,1-2.955,11.192l-.454,1.2,8.361,4.8a65.837,65.837,0,0,1-7.758,13.517l-8.4-4.851-.807.988a57.115,57.115,0,0,1-8.08,8.077l-.988.806,4.867,8.442a65.965,65.965,0,0,1-13.5,7.828l-4.916-8.469-1.191.452a48.715,48.715,0,0,1-11.23,2.949l-1.292.181v9.818a62.247,62.247,0,0,1-15-.013Z" transform="translate(-1.627)"/><path class="cls-8" d="M922.775,102.023,897.7,104.654l-15.082,3.332-5.962,3.507-.877,11.223.351,21.044v5.086l18.238.175s15.958-6.664,16.835-7.365,17.186-18.764,17.887-20.693,2.455-6.84,1.4-8.944S922.775,102.023,922.775,102.023Z" transform="translate(-1.627)"/><path class="cls-1" d="M988.825,185.453c0,2.947-9.552,6.673-26.25,8.8a233.977,233.977,0,0,1-29.25,1.7h0a233.81,233.81,0,0,1-29.25-1.7c-16.7-2.128-26.25-5.855-26.25-8.8h-3v24c0,4.106,6.017,7.454,17.886,9.952,3.455.728,7.274,1.351,11.364,1.863a239.687,239.687,0,0,0,29.25,1.685h0a239.663,239.663,0,0,0,29.25-1.685c4.091-.513,7.909-1.135,11.364-1.863,11.868-2.5,17.886-5.846,17.886-9.952v-24Z" transform="translate(-1.627)"/><path class="cls-2" d="M988.825,185.453c0,2.947-9.552,6.673-26.25,8.8v27.013c4.091-.513,7.909-1.135,11.364-1.863,11.868-2.5,17.886-5.846,17.886-9.952v-24Z" transform="translate(-1.627)"/><path class="cls-3" d="M933.325,195.953v27a239.663,239.663,0,0,0,29.25-1.685V194.255A233.977,233.977,0,0,1,933.325,195.953Z" transform="translate(-1.627)"/><path class="cls-4" d="M933.325,195.953a233.81,233.81,0,0,1-29.25-1.7v27.013a239.687,239.687,0,0,0,29.25,1.685h0v-27Z" transform="translate(-1.627)"/><path d="M973.939,103.5c-10.865-2.287-25.288-3.546-40.614-3.546s-29.75,1.259-40.614,3.546c-11.869,2.5-17.886,5.848-17.886,9.954v72c0,4.106,6.017,7.454,17.886,9.952,10.864,2.288,25.288,3.548,40.614,3.548s29.749-1.26,40.614-3.548c11.868-2.5,17.886-5.846,17.886-9.952v-72C991.825,109.347,985.807,106,973.939,103.5Zm-40.614-.546c34.386,0,55.5,6.115,55.5,10.5s-21.114,10.5-55.5,10.5-55.5-6.116-55.5-10.5S898.939,102.953,933.325,102.953Zm0,93c-34.386,0-55.5-6.116-55.5-10.5v-19.37q4.333,3.088,14.886,5.322c10.864,2.288,25.288,3.548,40.614,3.548s29.749-1.26,40.614-3.548q10.553-2.22,14.886-5.322v19.37C988.825,189.837,967.711,195.953,933.325,195.953Zm0-24c-34.386,0-55.5-6.116-55.5-10.5V142.084q4.333,3.089,14.886,5.322c10.864,2.287,25.288,3.547,40.614,3.547s29.749-1.26,40.614-3.547q10.553-2.221,14.886-5.322v19.369C988.825,165.837,967.711,171.953,933.325,171.953Zm0-24c-34.386,0-55.5-6.116-55.5-10.5V118.084q4.333,3.088,14.886,5.322c10.864,2.287,25.288,3.547,40.614,3.547s29.749-1.26,40.614-3.547q10.553-2.222,14.886-5.322v19.369C988.825,141.837,967.711,147.953,933.325,147.953Zm-38.4,34.379a1.5,1.5,0,0,1-1.468,1.2,1.439,1.439,0,0,1-.3-.031c-2.527-.52-4.84-1.092-6.875-1.7a1.5,1.5,0,1,1,.858-2.874c1.952.582,4.18,1.133,6.622,1.636A1.5,1.5,0,0,1,894.929,182.332Zm0-24.073a1.5,1.5,0,0,1-1.772,1.166c-2.521-.519-4.834-1.091-6.875-1.7a1.5,1.5,0,0,1,.858-2.875c1.959.584,4.187,1.135,6.622,1.637A1.5,1.5,0,0,1,894.929,158.259Zm0-23.5a1.5,1.5,0,0,1-1.772,1.167c-2.525-.52-4.838-1.093-6.875-1.7a1.5,1.5,0,0,1,.858-2.875c1.955.584,4.183,1.135,6.622,1.637A1.5,1.5,0,0,1,894.929,134.755Z" transform="translate(-1.627)"/><path d="M120.4,137.915v-3a23.906,23.906,0,0,0-16.163,6.274L81.28,118.232a16.5,16.5,0,1,0-29.777-.443L31.189,138.1A19.5,19.5,0,1,0,22.9,175.249c.115,0,.228-.006.342-.009l24.666,23.976a42.045,42.045,0,0,0-23.508,37.7v1.5h84v-1.5a41.927,41.927,0,0,0-15.128-32.249L42.356,154.492a19.358,19.358,0,0,0-2.4-8.185l20.172-20.173a16.464,16.464,0,0,0,12.271.186l25.18,25.18A23.993,23.993,0,0,0,120.4,182.915v-3a21,21,0,1,1,0-42ZM6.4,155.749a16.5,16.5,0,1,1,16.5,16.5A16.519,16.519,0,0,1,6.4,155.749Zm98.971,79.666H27.429a39,39,0,0,1,77.943,0ZM66.4,194.915a41.743,41.743,0,0,0-15.536,2.991L27.086,174.792A19.547,19.547,0,0,0,42.2,158.548l40.075,39.491A41.759,41.759,0,0,0,66.4,194.915Zm-28.14-51.157a19.634,19.634,0,0,0-4.375-4.11L53.06,120.474a16.65,16.65,0,0,0,4.309,4.177ZM53,110.915a13.5,13.5,0,1,1,13.5,13.5A13.515,13.515,0,0,1,53,110.915Zm22.23,13.992a16.654,16.654,0,0,0,4.431-4.055l22.5,22.5a24.066,24.066,0,0,0-3.361,5.125Z" transform="translate(-1.627)"/><path class="cls-1" d="M134.788,151.136a15.731,15.731,0,1,0,2.113,7.875A15.737,15.737,0,0,0,134.788,151.136Z" transform="translate(-1.627)"/><path class="cls-2" d="M107.513,151.136h27.275a15.746,15.746,0,0,0-27.275,0Z" transform="translate(-1.627)"/><path class="cls-3" d="M107.513,151.136a15.67,15.67,0,0,0-2.112,7.875h31.5a15.67,15.67,0,0,0-2.113-7.875Z" transform="translate(-1.627)"/><path class="cls-4" d="M107.513,166.886h27.275a15.676,15.676,0,0,0,2.113-7.875H105.4A15.675,15.675,0,0,0,107.513,166.886Z" transform="translate(-1.627)"/><path class="cls-1" d="M265.473,118.415a29.969,29.969,0,1,0,4.024,15A29.979,29.979,0,0,0,265.473,118.415Z" transform="translate(-1.627)"/><path class="cls-4" d="M213.52,118.415a29.851,29.851,0,0,0-4.023,15h60a29.852,29.852,0,0,0-4.024-15Z" transform="translate(-1.627)"/><path class="cls-3" d="M213.52,148.415h51.953a29.854,29.854,0,0,0,4.024-15h-60A29.854,29.854,0,0,0,213.52,148.415Z" transform="translate(-1.627)"/><path class="cls-2" d="M265.473,148.415H213.52a29.993,29.993,0,0,0,51.953,0Z" transform="translate(-1.627)"/><path d="M267.082,106.112a38.375,38.375,0,0,0-55.17,0A40.44,40.44,0,0,0,200.5,134.336a39.7,39.7,0,0,0,10.743,27.257c7.81,7.925,12.662,21.814,12.662,36.247v1.5h31.189v-1.5c0-14.9,4.371-27.881,11.991-35.613A39.489,39.489,0,0,0,278.5,134.336,40.444,40.444,0,0,0,267.082,106.112Zm-2.137,54.01c-7.907,8.022-12.55,21.161-12.839,36.218H241V169.79h-3v26.55H226.885c-.328-14.654-5.44-28.666-13.482-36.825a36.688,36.688,0,0,1-9.906-25.179,37.42,37.42,0,0,1,10.551-26.118,35.376,35.376,0,0,1,50.9,0A37.417,37.417,0,0,1,275.5,134.336,36.513,36.513,0,0,1,264.945,160.122ZM221.5,205.415h36v3h-36Zm0,9h36v3h-36Zm9,9h-9v3h9v12h18v-12h9v-3h-27Zm15,12h-12v-9h12Z" transform="translate(-1.627)"/><path d="M195.522,26.787l-6.64,2.751-3.444-8.315L113.376,51.072l3.478,8.4A13.494,13.494,0,0,0,127.119,84.25l3.478,8.4,17.237-7.14v43.438h3V62.906a9.277,9.277,0,0,0,6-.22v66.259h3V80.536L202.659,62.8l-3.444-8.315,6.659-2.758,14.887-.1-14.789-35.7Zm-35.688,50.5V70.8L196.443,55.63l2.3,5.544Zm-8.749-17.474a6.327,6.327,0,1,1,2.439.489A6.335,6.335,0,0,1,151.085,59.815ZM129.924,83.184l17.91-7.419v6.5L132.22,88.727ZM118.013,62.268l7.946,19.183a10.487,10.487,0,0,1-7.946-19.183Zm68.1-31.582h0l4.416,10.662L195.3,52.859,159.834,67.548v-6.7a9.379,9.379,0,0,0,2.351-10.506h0a9.375,9.375,0,1,0-14.351,11.03v11.15l-19.058,7.894L117.3,52.7l66.519-27.553Zm30.173,17.968-9.714.066-8.423-20.334,6.808-7.082ZM190.03,32.309l5.544-2.3,8.036,19.4-5.543,2.3Z" transform="translate(-1.627)"/><rect class="cls-1" x="211.489" y="8.595" width="51.111" height="31.121" transform="translate(7.173 92.552) rotate(-22.5)"/><rect class="cls-4" x="236.56" y="6.149" width="12.778" height="31.12" transform="translate(8.559 94.625) rotate(-22.5)"/><rect class="cls-3" x="224.755" y="11.039" width="12.778" height="31.12" transform="translate(5.789 90.479) rotate(-22.5)"/><rect class="cls-2" x="212.95" y="15.929" width="12.778" height="31.121" transform="translate(3.019 86.334) rotate(-22.5)"/></g></g></svg>